<svg width="56" height="15" viewBox="0 0 56 15" fill="none" xmlns="http://www.w3.org/2000/svg">
<path d="M10 0H9.71483C5.35895 0 1.81527 3.36443 1.81527 7.5C1.81527 8.30098 1.12882 8.95245 0.285446 8.95245H0V15H0.285171C4.64105 15 8.18473 11.6356 8.18473 7.5C8.18473 6.69902 8.87118 6.04755 9.71455 6.04755H9.99972L10 0Z" fill="black"></path>
<path d="M17.4231 12H15.8271L18.9591 3.432H20.8791L23.9871 12H22.3791L21.5751 9.708H18.2391L17.4231 12ZM18.6591 8.484H21.1551L19.9191 4.824H19.8831L18.6591 8.484ZM24.6597 3.432H26.1957V12H24.6597V3.432ZM26.8727 4.728V3.432H33.4487V4.728H30.9287V12H29.3927V4.728H26.8727ZM39.3553 3.432H40.8793V12H39.3553V8.352H35.6593V12H34.1233V3.432H35.6593V7.056H39.3553V3.432ZM47.8032 3.432V4.728H43.8072V7.032H47.5512V8.304H43.8072V10.704H47.8392V12H42.2712V3.432H47.8032ZM48.9424 11.988V3.432H52.2064C54.1624 3.432 55.2544 4.452 55.2544 5.868C55.2544 7.128 54.4624 7.884 53.5504 8.124C54.3424 8.352 54.6184 9.012 54.9184 9.972C55.1584 10.752 55.3384 11.364 55.6504 11.916V12H54.0784C53.8024 11.472 53.5984 10.716 53.3344 10.008C53.0464 9.216 52.6744 8.664 51.6184 8.664H50.4784V11.988H48.9424ZM52.1224 7.416C53.1664 7.416 53.7424 6.864 53.7424 6C53.7424 5.256 53.2504 4.68 52.0864 4.68H50.4784V7.416H52.1224Z" fill="black"></path>
</svg>