<svg xmlns="http://www.w3.org/2000/svg" width="79.995" height="80" viewBox="0 0 79.995 80" fill="none">
  <path d="M 0 54.031 L -2.914 54.043 L -2.914 54.043 L 0 54.031 Z M 6.693 41.933 L 8.591 44.144 L 8.593 44.143 L 6.693 41.933 Z M 6.693 38.569 L 8.593 36.359 L 8.591 36.358 L 6.693 38.569 Z M 0 26.471 L 2.914 26.483 L 2.914 26.483 L 0 26.471 Z M 24.065 16.222 L 22.008 18.286 L 22.008 18.286 L 24.065 16.222 Z M 63.983 56 L 66.04 53.936 L 66.04 53.936 L 63.983 56 Z M 53.735 80 L 53.723 77.086 L 53.723 77.086 L 53.735 80 Z M 41.598 73.298 L 43.809 71.4 L 43.807 71.398 L 41.598 73.298 Z M 38.238 73.298 L 40.447 75.198 L 40.448 75.197 L 38.238 73.298 Z M 26.101 80 L 26.113 77.086 L 26.112 77.086 L 26.101 80 Z M 15.821 56 L 17.879 58.064 L 17.886 58.057 L 15.821 56 Z M 55.93 15.747 L 53.872 13.684 L 53.866 13.69 L 55.93 15.747 Z M 79.995 25.969 L 77.081 25.98 L 77.081 25.981 L 79.995 25.969 Z M 73.302 38.067 L 71.404 35.856 L 71.403 35.857 L 73.302 38.067 Z M 73.302 41.431 L 71.403 43.641 L 71.404 43.642 L 73.302 41.431 Z M 79.995 53.529 L 82.909 53.541 L 82.909 53.541 L 79.995 53.529 Z M 55.93 63.778 L 57.988 61.714 L 57.987 61.714 L 55.93 63.778 Z M 16.012 24 L 13.955 26.064 L 13.956 26.064 L 16.012 24 Z M 26.261 0 L 26.272 2.914 L 26.273 2.914 L 26.261 0 Z M 38.398 6.702 L 36.187 8.6 L 36.188 8.602 L 38.398 6.702 Z M 41.758 6.702 L 39.549 4.802 L 39.548 4.803 L 41.758 6.702 Z M 53.895 0 L 53.883 2.914 L 53.883 2.914 L 53.895 0 Z M 64.143 24 L 62.086 21.936 L 62.076 21.946 L 64.143 24 Z M 24.061 64.333 L 26.119 66.396 L 26.128 66.387 L 24.061 64.333 Z M 2.914 54.019 C 2.897 49.96 6.035 46.339 8.591 44.144 L 4.795 39.723 C 2.072 42.06 -2.942 47.204 -2.914 54.043 L 2.914 54.019 Z M 8.593 44.143 C 10.927 42.136 10.927 38.366 8.593 36.359 L 4.793 40.778 C 4.551 40.57 4.516 40.344 4.516 40.251 C 4.516 40.158 4.551 39.932 4.793 39.724 L 8.593 44.143 Z M 8.591 36.358 C 6.035 34.163 2.897 30.542 2.914 26.483 L -2.914 26.459 C -2.942 33.298 2.072 38.442 4.795 40.78 L 8.591 36.358 Z M 2.914 26.483 C 2.953 16.564 15.227 11.525 22.008 18.286 L 26.123 14.159 C 15.518 3.586 -2.855 11.587 -2.914 26.46 L 2.914 26.483 Z M 22.008 18.286 L 61.926 58.064 L 66.04 53.936 L 26.122 14.158 L 22.008 18.286 Z M 61.926 58.064 C 68.688 64.805 63.696 77.047 53.723 77.086 L 53.746 82.914 C 68.635 82.855 76.664 64.528 66.04 53.936 L 61.926 58.064 Z M 53.723 77.086 C 49.64 77.103 46.001 73.953 43.809 71.4 L 39.387 75.196 C 41.728 77.922 46.888 82.942 53.747 82.914 L 53.723 77.086 Z M 43.807 71.398 C 41.8 69.063 38.035 69.063 36.028 71.398 L 40.448 75.197 C 40.24 75.438 40.014 75.475 39.918 75.475 C 39.821 75.475 39.595 75.438 39.388 75.197 L 43.807 71.398 Z M 36.029 71.397 C 33.829 73.954 30.195 77.103 26.113 77.086 L 26.089 82.914 C 32.948 82.942 38.104 77.921 40.447 75.198 L 36.029 71.397 Z M 26.112 77.086 C 16.097 77.047 11.165 64.757 17.879 58.064 L 13.764 53.936 C 3.216 64.452 11.119 82.855 26.089 82.914 L 26.112 77.086 Z M 17.886 58.057 L 57.994 17.803 L 53.866 13.69 L 13.757 53.943 L 17.886 58.057 Z M 57.988 17.81 C 64.773 11.042 77.042 16.073 77.081 25.98 L 82.909 25.957 C 82.851 11.074 64.464 3.118 53.872 13.684 L 57.988 17.81 Z M 77.081 25.981 C 77.098 30.04 73.961 33.661 71.404 35.856 L 75.201 40.277 C 77.924 37.94 82.937 32.796 82.909 25.957 L 77.081 25.981 Z M 71.403 35.857 C 69.068 37.864 69.068 41.634 71.403 43.641 L 75.202 39.222 C 75.445 39.43 75.48 39.656 75.48 39.749 C 75.48 39.842 75.445 40.068 75.202 40.276 L 71.403 35.857 Z M 71.404 43.642 C 73.961 45.837 77.098 49.458 77.081 53.517 L 82.909 53.541 C 82.937 46.702 77.924 41.558 75.201 39.22 L 71.404 43.642 Z M 77.081 53.516 C 77.039 63.437 64.768 68.474 57.988 61.714 L 53.873 65.841 C 64.478 76.415 82.845 68.411 82.909 53.541 L 77.081 53.516 Z M 57.987 61.714 L 18.069 21.936 L 13.956 26.064 L 53.873 65.842 L 57.987 61.714 Z M 18.07 21.936 C 11.308 15.195 16.3 2.953 26.272 2.914 L 26.249 -2.914 C 11.361 -2.855 3.331 15.472 13.955 26.064 L 18.07 21.936 Z M 26.273 2.914 C 30.356 2.897 33.995 6.047 36.187 8.6 L 40.609 4.804 C 38.268 2.078 33.107 -2.942 26.249 -2.914 L 26.273 2.914 Z M 36.188 8.602 C 38.195 10.937 41.96 10.937 43.967 8.602 L 39.548 4.803 C 39.755 4.562 39.981 4.525 40.078 4.525 C 40.174 4.525 40.4 4.562 40.608 4.803 L 36.188 8.602 Z M 43.967 8.603 C 46.166 6.046 49.8 2.897 53.883 2.914 L 53.907 -2.914 C 47.048 -2.942 41.891 2.079 39.549 4.802 L 43.967 8.603 Z M 53.883 2.914 C 63.855 2.953 68.848 15.195 62.086 21.936 L 66.2 26.064 C 76.824 15.472 68.795 -2.855 53.906 -2.914 L 53.883 2.914 Z M 62.076 21.946 L 21.994 62.279 L 26.128 66.387 L 66.21 26.054 L 62.076 21.946 Z M 22.003 62.27 C 15.363 68.893 2.957 64.061 2.914 54.019 L -2.914 54.043 C -2.85 69.192 15.764 76.725 26.119 66.396 L 22.003 62.27 Z" fill="currentColor" fill-rule="nonzero"/>
</svg>
